<?xml version="1.0" standalone="no"?>
<!DOCTYPE svg PUBLIC "-//W3C//DTD SVG 20010904//EN"
 "http://www.w3.org/TR/2001/REC-SVG-20010904/DTD/svg10.dtd">
<svg version="1.0" xmlns="http://www.w3.org/2000/svg"
 width="1280.000000pt" height="452.000000pt" viewBox="0 0 1280.000000 452.000000"
 preserveAspectRatio="xMidYMid meet">
<g transform="translate(0.000000,452.000000) scale(0.100000,-0.100000)"
fill="#369" stroke="none">
<path d="M5667 4422 c-53 -53 -97 -102 -97 -107 0 -16 197 -208 208 -204 25 9
202 182 202 197 0 18 -188 212 -205 212 -6 0 -54 -44 -108 -98z"/>
<path d="M5397 4152 c-53 -53 -97 -102 -97 -107 0 -13 192 -205 205 -205 6 0
57 47 115 105 l104 105 -104 100 c-58 54 -110 99 -115 100 -6 0 -54 -44 -108
-98z"/>
<path d="M5937 4152 c-53 -53 -97 -102 -97 -107 0 -13 192 -205 205 -205 13 0
205 192 205 205 0 13 -192 205 -205 205 -6 0 -54 -44 -108 -98z"/>
<path d="M5127 3882 c-67 -67 -96 -103 -91 -113 4 -8 52 -57 106 -109 l99 -94
106 106 107 107 -99 100 c-54 56 -106 101 -115 101 -8 0 -59 -44 -113 -98z"/>
<path d="M5677 3882 c-53 -53 -97 -104 -97 -113 0 -19 182 -199 201 -199 16 0
209 190 209 206 0 13 -193 204 -206 204 -5 0 -53 -44 -107 -98z"/>
<path d="M6207 3882 c-53 -53 -97 -102 -97 -108 0 -13 193 -204 206 -204 16 0
204 195 204 211 0 19 -184 199 -203 199 -7 0 -56 -44 -110 -98z"/>
<path d="M5399 3613 c-55 -53 -99 -102 -99 -108 0 -16 193 -205 211 -205 8 0
60 45 114 100 l99 101 -104 104 c-58 58 -109 105 -114 105 -5 0 -53 -44 -107
-97z"/>
<path d="M5937 3612 c-53 -53 -97 -102 -97 -107 0 -12 192 -205 204 -205 17 0
206 183 206 199 0 17 -188 211 -205 211 -6 0 -54 -44 -108 -98z"/>
<path d="M5677 3342 c-53 -53 -97 -105 -97 -114 0 -17 187 -198 205 -198 14 0
205 192 205 206 0 13 -193 204 -206 204 -5 0 -53 -44 -107 -98z"/>
<path d="M4040 2270 l0 -1090 135 0 135 0 0 576 0 576 58 57 c34 33 86 70 127
90 59 30 83 36 156 39 108 5 169 -13 233 -69 55 -49 93 -125 106 -216 5 -37
10 -290 10 -560 l0 -493 135 0 135 0 0 534 c0 596 -3 634 -64 763 -87 182
-240 274 -456 276 -91 0 -116 -4 -190 -30 -92 -31 -192 -91 -217 -129 -8 -13
-19 -24 -24 -24 -5 0 -9 173 -9 395 l0 395 -135 0 -135 0 0 -1090z"/>
<path d="M310 3101 l-125 -48 -3 -162 -2 -161 -90 0 -90 0 0 -110 0 -110 90 0
89 0 3 -497 c4 -561 2 -548 81 -665 51 -76 126 -138 204 -169 51 -20 74 -23
193 -23 116 1 314 24 328 39 4 4 -28 226 -33 233 -2 2 -36 -7 -76 -19 -165
-51 -324 -15 -376 84 -40 78 -43 116 -43 575 l0 442 210 0 210 0 0 110 0 110
-210 0 -210 0 0 210 c0 162 -3 210 -12 209 -7 0 -69 -22 -138 -48z"/>
<path d="M11010 2731 l-65 -78 -45 22 c-165 83 -413 103 -576 45 -174 -61
-313 -211 -359 -387 -35 -133 -9 -336 56 -450 39 -67 119 -147 188 -188 28
-16 51 -33 51 -36 0 -3 -19 -11 -42 -18 -78 -23 -164 -87 -194 -143 -18 -35
-18 -126 0 -170 49 -116 206 -166 421 -134 253 38 272 40 336 28 115 -21 171
-69 185 -157 13 -90 -54 -169 -184 -217 -47 -18 -80 -22 -197 -22 -128 -1
-147 2 -220 27 -44 15 -115 48 -157 72 -43 25 -81 45 -86 45 -5 0 -39 -46 -77
-102 -52 -78 -65 -105 -58 -117 27 -43 263 -136 409 -161 105 -19 338 -8 434
20 282 81 434 272 401 503 -17 119 -67 204 -154 262 -125 83 -282 103 -519 66
-228 -35 -338 -24 -338 33 0 62 93 97 321 120 86 9 180 23 210 32 196 57 352
227 390 421 27 144 -4 349 -68 447 -13 21 -21 42 -16 46 4 3 37 28 73 55 36
27 69 52 74 56 7 6 -111 159 -124 159 -3 0 -34 -36 -70 -79z m-346 -217 c57
-20 133 -91 164 -155 49 -102 50 -257 3 -365 -28 -61 -93 -128 -152 -153 -62
-27 -168 -30 -239 -6 -132 44 -223 217 -207 391 13 135 97 251 212 292 46 16
165 14 219 -4z"/>
<path d="M1664 2749 c-92 -12 -141 -27 -224 -70 -214 -111 -351 -302 -400
-559 -17 -86 -14 -293 5 -385 58 -277 258 -492 525 -562 85 -22 305 -22 407 1
142 31 316 106 330 143 2 6 -21 54 -51 106 l-56 95 -58 -38 c-196 -129 -484
-128 -645 4 -105 85 -164 209 -174 364 l-6 82 561 0 561 0 8 48 c12 73 7 232
-11 303 -67 267 -275 435 -581 469 -99 11 -104 11 -191 -1z m247 -245 c74 -22
151 -76 195 -135 39 -54 74 -150 74 -205 l0 -34 -430 0 -430 0 6 28 c23 103
52 161 117 229 60 64 100 90 175 114 74 23 219 25 293 3z"/>
<path d="M3263 2749 c-286 -32 -515 -198 -617 -447 -46 -114 -61 -205 -61
-362 0 -178 18 -267 82 -400 39 -81 58 -108 132 -180 96 -95 181 -146 298
-179 205 -56 496 -25 693 74 39 19 70 38 70 41 0 6 -99 216 -104 222 -3 2 -35
-15 -72 -37 -126 -76 -246 -108 -364 -95 -222 23 -361 137 -426 349 -26 84
-26 322 0 414 49 179 156 300 307 351 55 19 80 21 179 18 125 -5 225 -32 301
-82 l38 -26 61 86 c34 48 64 92 66 99 6 16 -47 47 -153 91 -146 61 -279 80
-430 63z"/>
<path d="M6826 2749 c-90 -13 -178 -59 -255 -134 l-67 -65 -44 90 -44 90 -88
0 -88 0 0 -775 0 -775 135 0 135 0 0 573 1 572 29 39 c36 48 120 112 178 137
54 23 167 25 238 4 69 -20 128 -67 156 -123 l23 -47 3 -577 3 -578 134 0 135
0 0 573 0 573 29 45 c34 54 112 114 176 136 65 22 205 14 260 -14 91 -47 140
-130 155 -265 6 -45 10 -300 10 -565 l0 -483 135 0 135 0 0 563 c0 620 -2 646
-62 767 -56 115 -164 198 -298 230 -95 23 -232 16 -329 -16 -96 -32 -193 -92
-223 -138 l-21 -32 -58 59 c-62 62 -128 97 -224 121 -80 19 -197 26 -269 15z"/>
<path d="M8982 2749 c-94 -12 -209 -46 -287 -85 -119 -59 -115 -45 -50 -173
30 -61 57 -111 60 -111 3 0 28 16 55 36 28 20 83 48 123 62 63 22 89 26 203
26 126 1 132 0 189 -29 70 -36 118 -93 140 -168 18 -61 31 -167 20 -167 -4 0
-35 7 -69 16 -83 22 -281 14 -386 -16 -228 -64 -396 -211 -451 -392 -27 -89
-23 -223 10 -308 44 -115 159 -223 284 -267 67 -23 244 -23 337 1 91 23 196
77 255 131 27 25 51 41 53 35 11 -31 71 -107 101 -127 45 -31 120 -51 201 -55
l65 -3 3 63 c3 63 3 63 -42 106 -72 70 -76 96 -76 460 0 171 -5 364 -10 429
-29 345 -184 504 -526 537 -119 11 -112 11 -202 -1z m360 -789 c111 -22 98 5
98 -209 l0 -189 -65 -61 c-73 -68 -113 -91 -200 -116 -108 -32 -262 -9 -323
48 -70 65 -88 195 -41 297 79 170 315 272 531 230z"/>
<path d="M11949 2751 c-293 -40 -531 -261 -609 -566 -27 -105 -36 -277 -21
-386 26 -181 94 -322 211 -439 163 -162 364 -228 616 -202 134 14 264 50 355
98 109 57 108 54 41 166 l-57 95 -35 -24 c-169 -118 -404 -144 -578 -63 -154
72 -250 224 -268 426 l-7 74 561 0 c524 0 560 1 567 18 17 38 17 236 1 312
-49 233 -230 414 -469 469 -97 23 -230 32 -308 22z m303 -269 c119 -58 194
-165 213 -299 l7 -53 -432 0 -433 0 7 43 c17 110 117 246 217 298 81 42 119
49 239 46 108 -2 120 -4 182 -35z"/>
<path d="M5640 1955 l0 -775 140 0 140 0 0 775 0 775 -140 0 -140 0 0 -775z"/>
<path d="M342 365 c-22 -10 -38 -27 -48 -51 -30 -72 6 -121 115 -154 83 -24
103 -48 71 -80 -30 -30 -93 -27 -119 6 -11 14 -21 29 -23 33 -5 14 -68 0 -68
-16 0 -27 31 -73 60 -88 40 -21 153 -20 190 2 57 34 68 116 22 163 -25 24
-112 60 -147 60 -7 0 -19 8 -28 18 -25 28 -1 56 48 56 29 0 43 -6 59 -27 16
-19 31 -27 54 -27 37 0 41 14 16 61 -28 54 -128 76 -202 44z"/>
<path d="M1926 370 c-70 -21 -110 -88 -110 -185 -1 -126 56 -185 177 -185 84
0 128 22 157 81 29 55 27 160 -3 214 -38 69 -133 101 -221 75z m110 -65 c77
-32 86 -178 13 -229 -33 -23 -90 -21 -118 5 -65 61 -52 192 22 224 40 18 41
18 83 0z"/>
<path d="M9426 370 c-70 -21 -110 -88 -110 -185 -1 -126 56 -185 177 -185 84
0 128 22 157 81 29 55 27 160 -3 214 -38 69 -133 101 -221 75z m110 -65 c77
-32 86 -178 13 -229 -33 -23 -90 -21 -118 5 -65 61 -52 192 22 224 40 18 41
18 83 0z"/>
<path d="M12542 365 c-22 -10 -38 -27 -48 -51 -30 -72 6 -121 115 -154 83 -24
103 -48 71 -80 -30 -30 -93 -27 -119 6 -11 14 -21 29 -23 33 -5 14 -68 0 -68
-16 0 -27 31 -73 60 -88 40 -21 153 -20 190 2 57 34 68 116 22 163 -25 24
-112 60 -147 60 -7 0 -19 8 -28 18 -25 28 -1 56 48 56 29 0 43 -6 59 -27 16
-19 31 -27 54 -27 37 0 41 14 16 61 -28 54 -128 76 -202 44z"/>
<path d="M3420 185 l0 -185 130 0 130 0 0 30 0 29 -92 3 -93 3 -3 153 -3 152
-34 0 -35 0 0 -185z"/>
<path d="M4922 214 l3 -156 33 -29 c30 -27 38 -29 112 -29 131 0 149 30 150
253 l0 117 -40 0 -40 0 0 -138 c0 -120 -2 -141 -17 -154 -28 -23 -50 -28 -82
-17 -41 15 -51 51 -51 190 l0 119 -36 0 -35 0 3 -156z"/>
<path d="M6460 340 c0 -30 1 -30 55 -30 l55 0 0 -155 0 -155 35 0 35 0 0 155
0 155 55 0 c54 0 55 0 55 30 l0 30 -145 0 -145 0 0 -30z"/>
<path d="M7990 185 l0 -185 35 0 35 0 0 185 0 185 -35 0 -35 0 0 -185z"/>
<path d="M10920 185 l0 -185 35 0 34 0 3 117 3 116 71 -114 c70 -114 71 -114
112 -117 l42 -3 0 185 0 186 -35 0 -35 0 0 -115 c0 -63 -3 -115 -7 -115 -5 0
-39 52 -78 115 -69 114 -70 115 -107 115 l-38 0 0 -185z"/>
</g>
</svg>
